<?xml version="1.0" encoding="utf-8"?>
<!-- Generator: Adobe Illustrator 26.0.3, SVG Export Plug-In . SVG Version: 6.00 Build 0)  -->
<svg version="1.1" id="Layer_1" xmlns="http://www.w3.org/2000/svg" xmlns:xlink="http://www.w3.org/1999/xlink" x="0px" y="0px"
	 viewBox="0 0 707.1 235.7" style="enable-background:new 0 0 707.1 235.7;" xml:space="preserve">
<style type="text/css">
	.st0{fill:#FFF;}
</style>
<g>
	<g>
		<path class="st0" d="M460.3,105.2l-16.6,63.6H425l-10.1-41.9l-10.5,41.9h-18.8l-16.1-63.6H386l9.2,46.3l11.3-46.3h17l10.9,46.3
			l9.2-46.3H460.3z"/>
		<path class="st0" d="M483.6,117.6v12.9h20.8v12h-20.8v14h23.5v12.4h-39v-63.6h39v12.4L483.6,117.6L483.6,117.6z"/>
		<path class="st0" d="M549.6,168.8l-13.2-24h-3.7v24h-15.5v-63.6h26c5,0,9.3,0.9,12.8,2.6c3.5,1.8,6.2,4.2,7.9,7.2
			c1.8,3.1,2.6,6.4,2.6,10.2c0,4.2-1.2,8-3.6,11.3s-5.9,5.7-10.6,7.1l14.7,25.2L549.6,168.8L549.6,168.8z M532.7,133.8h9.6
			c2.8,0,5-0.7,6.4-2.1c1.4-1.4,2.1-3.4,2.1-5.9c0-2.4-0.7-4.3-2.1-5.7s-3.5-2.1-6.4-2.1h-9.6V133.8z"/>
		<path class="st0" d="M591.8,105.2v63.6h-15.5v-63.6H591.8z"/>
		<path class="st0" d="M644.4,105.2v12.4h-25.9V131h19.4v12.1h-19.4v25.7H603v-63.6L644.4,105.2L644.4,105.2z"/>
		<path class="st0" d="M707.1,105.2l-22,42.6v21h-15.5v-21l-22-42.6h17.6l12.3,26.6l12.2-26.6L707.1,105.2L707.1,105.2z"/>
	</g>
	<g>
		<path class="st0" d="M411.1,192.9l-9.1,31.2h-4.6l-7.3-25.1l-7.5,25.1l-4.5,0l-8.7-31.3h4.4l6.8,26.5l7.5-26.5h4.6l7.2,26.4
			l6.9-26.4L411.1,192.9L411.1,192.9z"/>
		<path class="st0" d="M437.9,213.4h-19.6c0.1,2.4,1,4.3,2.5,5.7c1.5,1.4,3.3,2,5.5,2c1.8,0,3.2-0.4,4.4-1.2c1.2-0.8,2-1.9,2.5-3.3
			h4.4c-0.7,2.4-2,4.3-4,5.8c-2,1.5-4.4,2.2-7.4,2.2c-2.3,0-4.4-0.5-6.2-1.6c-1.8-1-3.3-2.5-4.3-4.5s-1.6-4.2-1.6-6.7
			s0.5-4.8,1.5-6.7c1-1.9,2.4-3.4,4.3-4.4c1.8-1,4-1.6,6.3-1.6c2.3,0,4.4,0.5,6.2,1.5c1.8,1,3.2,2.4,4.1,4.2s1.5,3.8,1.5,6
			C438,211.7,438,212.5,437.9,213.4z M432.8,206.1c-0.7-1.1-1.6-2-2.8-2.6s-2.5-0.9-3.9-0.9c-2.1,0-3.8,0.7-5.3,2
			c-1.5,1.3-2.3,3.1-2.5,5.5h15.5C433.8,208.5,433.5,207.2,432.8,206.1z"/>
		<path class="st0" d="M481.2,192.9l-11.8,31.2h-4.7l-11.8-31.2h4.4l9.8,26.9l9.8-26.9H481.2z"/>
		<path class="st0" d="M508,213.4h-19.6c0.2,2.4,1,4.3,2.5,5.7c1.5,1.4,3.3,2,5.5,2c1.8,0,3.2-0.4,4.4-1.2c1.2-0.8,2-1.9,2.5-3.3
			h4.4c-0.7,2.4-2,4.3-4,5.8c-2,1.5-4.4,2.2-7.3,2.2c-2.3,0-4.4-0.5-6.2-1.6c-1.8-1-3.3-2.5-4.3-4.5s-1.6-4.2-1.6-6.7
			s0.5-4.8,1.5-6.7c1-1.9,2.4-3.4,4.3-4.4c1.8-1,4-1.6,6.3-1.6c2.3,0,4.4,0.5,6.2,1.5c1.8,1,3.2,2.4,4.2,4.2c1,1.8,1.5,3.8,1.5,6
			C508.1,211.7,508.1,212.5,508,213.4z M502.9,206.1c-0.7-1.1-1.6-2-2.8-2.6s-2.5-0.9-3.9-0.9c-2.1,0-3.8,0.7-5.3,2
			c-1.5,1.3-2.3,3.1-2.5,5.5h15.5C503.9,208.5,503.5,207.2,502.9,206.1z"/>
		<path class="st0" d="M520.6,200.3c1.3-0.8,3-1.2,4.9-1.2v4.2h-1.1c-4.6,0-6.9,2.5-6.9,7.4v13.4h-4.1v-24.6h4.1v4
			C518.3,202.2,519.3,201.1,520.6,200.3z"/>
		<path class="st0" d="M530.3,194.8c-0.5-0.5-0.8-1.2-0.8-2s0.3-1.4,0.8-2c0.5-0.5,1.2-0.8,2-0.8c0.8,0,1.4,0.3,1.9,0.8
			s0.8,1.2,0.8,2s-0.3,1.4-0.8,2c-0.5,0.5-1.2,0.8-1.9,0.8C531.5,195.6,530.9,195.3,530.3,194.8z M534.3,199.6v24.6h-4.1v-24.6
			H534.3z"/>
		<path class="st0" d="M551.2,202.9h-5.2v21.2H542V203h-3.2v-3.4h3.2v-1.8c0-2.8,0.7-4.8,2.1-6s3.7-1.9,6.8-1.9v3.4
			c-1.8,0-3.1,0.4-3.8,1.1c-0.7,0.7-1.1,1.9-1.1,3.5v1.8h5.2L551.2,202.9L551.2,202.9z"/>
		<path class="st0" d="M577.2,199.6l-14.8,36.1h-4.2l4.8-11.8l-9.9-24.3h4.5l7.7,19.9l7.6-19.9H577.2z"/>
		<path class="st0" d="M582.5,223.6c-0.5-0.5-0.8-1.2-0.8-2c0-0.8,0.3-1.4,0.8-2s1.2-0.8,2-0.8c0.8,0,1.4,0.3,1.9,0.8
			c0.5,0.5,0.8,1.2,0.8,2c0,0.8-0.3,1.4-0.8,2s-1.2,0.8-1.9,0.8C583.7,224.4,583.1,224.2,582.5,223.6z M586.5,192.9l-0.5,22.4h-3.4
			l-0.5-22.4L586.5,192.9L586.5,192.9z"/>
	</g>
	<path class="st0" d="M185.6,142.7l49.8,82.5L371.2,0H0l135.8,225.2L185.6,142.7z M328.4,24.1l-93.1,154.3l-35.6-59.1l57.4-95.2
		C257.1,24.1,328.4,24.1,328.4,24.1z M228.9,24.1L185.6,96l-43.3-71.8H228.9z M114.1,24.1l57.4,95.2l-35.6,59.1L42.8,24.1H114.1z"/>
</g>
</svg>
