<svg id="Layer_1" data-name="Layer 1" xmlns="http://www.w3.org/2000/svg" viewBox="0 0 165.23 52.8"><defs><style>.cls-1{fill:#00a072;}</style></defs><path class="cls-1" d="M43.4,33.38,55,52.66,86.81,0H0L31.77,52.66ZM76.81,5.65,55,41.73,46.7,27.91,60.13,5.65Zm-23.27,0L43.4,22.44,33.27,5.65Zm-26.86,0L40.11,27.91,31.77,41.73,10,5.65Z"/><path class="cls-1" d="M108,37.38l-4,15.28H99.54l-2.44-10-2.52,10H90.07L86.2,37.38h4l2.2,11.13L95.1,37.38h4.09l2.61,11.13L104,37.38Z"/><path class="cls-1" d="M113.21,40.37v3.09h5v2.87h-5v3.35h5.64v3h-9.36V37.38h9.36v3Z"/><path class="cls-1" d="M128.64,52.66l-3.17-5.76h-.9v5.76h-3.72V37.38h6.25a6.91,6.91,0,0,1,3.08.63,4.4,4.4,0,0,1,1.9,1.73,4.86,4.86,0,0,1,.63,2.45,4.47,4.47,0,0,1-.86,2.72,4.57,4.57,0,0,1-2.53,1.7l3.52,6Zm-4.07-8.4h2.31a2.16,2.16,0,0,0,1.54-.5,2.16,2.16,0,0,0,0-2.79,2.16,2.16,0,0,0-1.54-.5h-2.31Z"/><path class="cls-1" d="M138.35,37.38V52.66h-3.72V37.38Z"/><path class="cls-1" d="M150.58,37.38v3h-6.22v3.22H149v2.89h-4.66v6.18h-3.72V37.38Z"/><path class="cls-1" d="M165.23,37.38l-5.29,10.23v5h-3.72v-5l-5.29-10.23h4.23l3,6.4,2.93-6.4Z"/></svg>