<svg width="706" height="250" viewBox="0 0 706 250" fill="none" xmlns="http://www.w3.org/2000/svg">
<g clip-path="url(#clip0_1_2)">
<path d="M185.441 158.049L235.006 249.337L370.925 0H0L135.748 249.337L185.441 158.049ZM328.196 26.7519L235.006 197.585L199.541 132.15L256.925 26.7519H328.196ZM228.767 26.7519L185.441 106.25L142.157 26.7519H228.767ZM113.999 26.7519L171.383 132.15L135.748 197.585L42.7283 26.7519H113.999Z" fill="white"/>
<path d="M461.466 176.989L444.375 249.337H425.318L414.892 201.989L404.124 249.337H384.854L368.318 176.989H385.409L394.81 229.687L406.346 176.989H423.822L434.974 229.687L444.375 176.989H461.466Z" fill="white"/>
<path d="M483.727 191.146V205.777H505.091V219.366H483.727V235.227H507.826V249.432H467.832V176.989H507.826V191.193L483.727 191.146Z" fill="white"/>
<path d="M549.657 249.337L536.112 222.064H532.267V249.337H516.372V176.989H543.077C547.612 176.849 552.116 177.87 556.237 179.972C559.619 181.746 562.445 184.598 564.356 188.163C566.161 191.699 567.09 195.701 567.048 199.763C567.125 204.386 565.834 208.909 563.373 212.642C560.707 216.617 556.891 219.458 552.563 220.691L567.603 249.1L549.657 249.337ZM532.267 209.564H542.137C544.524 209.751 546.884 208.902 548.717 207.197C550.127 205.351 550.9 203.01 550.9 200.592C550.9 198.173 550.127 195.833 548.717 193.987C546.884 192.282 544.524 191.433 542.137 191.619H532.267V209.564Z" fill="white"/>
<path d="M591.146 176.989V249.337H575.251V176.989H591.146Z" fill="white"/>
<path d="M643.403 176.989V191.193H616.826V206.439H636.652V220.123H616.741V249.384H600.846V176.989H643.403Z" fill="white"/>
<path d="M706 176.989L683.397 225.426V249.1H667.502V225.426L644.898 176.989H662.973L675.791 207.292L688.31 176.989H706Z" fill="white"/>
</g>
<defs>
<clipPath id="clip0_1_2">
<rect width="706" height="250" fill="white"/>
</clipPath>
</defs>
</svg>
